<?xml version="1.0" encoding="UTF-8"?>
<svg id="Camada_2" data-name="Camada 2" xmlns="http://www.w3.org/2000/svg" viewBox="0 0 60 58.49">
  <defs>
    <style>
      .cls-1 {
        fill: #9899fe;
      }

      .cls-1, .cls-2 {
        stroke-width: 0px;
      }

      .cls-2 {
        fill: #00005b;
      }
    </style>
  </defs>
  <g id="Camada_1-2" data-name="Camada 1">
    <g>
      <path class="cls-2" d="M50.07,58.49H9.99c-.2-.1-.41-.09-.62-.1-1.63-.2-3.14-.73-4.5-1.64-2.8-1.88-4.39-4.5-4.77-7.85.02-.07,0-.15,0-.22,0-.18-.1-.34-.08-.52V10.33c.02-.25.12-.48.09-.73.11-1.08.37-2.11.79-3.11C2.41,2.9,5.92.24,10.17.05c.18,0,.36,0,.54,0,12.88,0,25.76,0,38.64,0,.18,0,.36,0,.54,0,.44.01.87.06,1.3.14,2.9.53,5.21,1.99,6.91,4.39,1.07,1.52,1.71,3.21,1.85,5.08,0,.11-.05.23.05.33v38.57c-.1.08-.05.18-.05.27,0,.37-.07.74-.14,1.1-.9,4.48-4.55,7.88-9.07,8.45-.23.01-.46,0-.68.11ZM19.41,15.06c-1.04,0-2.07,0-3.11,0-.3,0-.37.06-.37.37,0,.83-.15,1.62-.43,2.4-1.7,4.85-3.39,9.7-5.08,14.55-.96,2.75-1.92,5.51-2.88,8.26-.16.47-.08.59.41.59,1.46,0,2.93,0,4.39,0,.41,0,.5-.07.63-.47.53-1.64,1.06-3.27,1.58-4.91.08-.24.16-.47.23-.71.03-.12.09-.18.22-.17.07,0,.13,0,.2,0,2.86,0,5.73,0,8.59,0,.09,0,.17,0,.26,0,.09,0,.14.02.16.11.01.06.04.11.05.16.62,1.82,1.25,3.65,1.87,5.47.12.35.19.4.56.4,1.65,0,3.29,0,4.94,0,.42,0,.53-.1.38-.53-.23-.62-.45-1.25-.67-1.88-2.78-7.76-5.56-15.52-8.34-23.29-.13-.36-.15-.38-.53-.38-1.02,0-2.04,0-3.05,0ZM38.87,32.78c.11-.06.22-.04.32-.04,2.48,0,4.97,0,7.45,0,.24,0,.48-.01.71.02,1.15.15,2.3.04,3.45-.05.29-.02.38-.11.42-.4.07-.53.1-1.06.13-1.59.06-1.03.02-2.05-.2-3.06-.31-1.45-.9-2.77-1.84-3.91-1.28-1.54-3-2.29-4.94-2.59-.89-.14-1.78-.11-2.68-.05-.81.05-1.61.19-2.37.48-1.57.6-2.84,1.6-3.86,2.92-1.4,1.82-2.07,3.92-2.23,6.18-.11,1.56.04,3.1.51,4.59.78,2.5,2.3,4.39,4.69,5.52,1.29.61,2.67.86,4.09.93,1.49.07,2.97.01,4.43-.27.81-.16,1.59-.38,2.35-.69.26-.1.37-.28.37-.54,0-.05,0-.1,0-.14,0-1.18,0-2.36,0-3.54,0-.07,0-.13,0-.2-.02-.18-.05-.2-.22-.13-.33.13-.66.25-1,.33-1.29.31-2.59.5-3.92.52-1,0-1.96-.19-2.9-.55-1.26-.48-2.08-1.37-2.51-2.63-.13-.37-.24-.74-.25-1.13Z"/>
      <path class="cls-1" d="M49.9,0s0,.03,0,.05c-.18,0-.36,0-.54,0-12.88,0-25.76,0-38.64,0-.18,0-.36,0-.54,0,0-.02,0-.03,0-.05h39.73Z"/>
      <path class="cls-1" d="M0,9.59s.06,0,.09,0c.03.25-.08.49-.09.73,0-.25,0-.49,0-.74Z"/>
      <path class="cls-1" d="M.09,48.89s-.06,0-.09,0c0-.25,0-.49,0-.74-.02.18.08.34.08.52,0,.07.03.15,0,.22Z"/>
      <path class="cls-1" d="M50.74,58.38c-.09.09-.24,0-.34.11h-.34c.22-.1.45-.1.68-.11Z"/>
      <path class="cls-1" d="M9.65,58.49c-.07-.09-.21-.02-.28-.1.21,0,.43,0,.62.1h-.34Z"/>
      <path class="cls-1" d="M59.95,9.66s.03,0,.05-.01v.34c-.1-.1-.05-.22-.05-.33Z"/>
      <path class="cls-1" d="M60,48.84s-.03,0-.05-.01c0-.09-.05-.2.05-.27v.29Z"/>
      <path class="cls-1" d="M19.41,15.06c1.02,0,2.04,0,3.05,0,.38,0,.4.02.53.38,2.78,7.76,5.56,15.52,8.34,23.29.22.63.45,1.25.67,1.88.16.43.04.54-.38.53-1.65,0-3.29,0-4.94,0-.36,0-.44-.05-.56-.4-.62-1.82-1.25-3.65-1.87-5.47-.02-.05-.04-.11-.05-.16-.02-.09-.07-.12-.16-.11-.08,0-.17,0-.26,0-2.86,0-5.73,0-8.59,0-.07,0-.13,0-.2,0-.13-.01-.18.05-.22.17-.07.24-.15.47-.23.71-.53,1.64-1.06,3.27-1.58,4.91-.13.4-.22.47-.63.47-1.46,0-2.93,0-4.39,0-.49,0-.57-.12-.41-.59.96-2.75,1.92-5.51,2.88-8.26,1.69-4.85,3.38-9.7,5.08-14.55.27-.78.43-1.57.43-2.4,0-.31.06-.37.37-.37,1.04,0,2.07,0,3.11,0ZM19.45,19.65s-.04,0-.06,0c-.01.04-.02.08-.03.13-.12.51-.23,1.02-.37,1.52-.42,1.55-.94,3.07-1.4,4.61-.4,1.33-.76,2.67-1.25,3.97-.01.03-.01.07-.02.11.35.06,6.09.04,6.3-.02-1.08-3.43-2.22-6.84-3.17-10.32Z"/>
      <path class="cls-1" d="M38.87,32.78c.02.39.13.76.25,1.13.43,1.26,1.25,2.15,2.51,2.63.93.35,1.89.56,2.9.55,1.33-.01,2.63-.21,3.92-.52.34-.08.67-.2,1-.33.16-.07.2-.04.22.13,0,.07,0,.13,0,.2,0,1.18,0,2.36,0,3.54,0,.05,0,.1,0,.14,0,.27-.11.44-.37.54-.76.31-1.54.53-2.35.69-1.47.28-2.95.34-4.43.27-1.42-.07-2.8-.32-4.09-.93-2.39-1.13-3.91-3.02-4.69-5.52-.46-1.5-.62-3.04-.51-4.59.16-2.27.82-4.36,2.23-6.18,1.02-1.33,2.3-2.32,3.86-2.92.76-.29,1.56-.42,2.37-.48.89-.06,1.79-.09,2.68.05,1.94.3,3.66,1.04,4.94,2.59.94,1.14,1.54,2.46,1.84,3.91.21,1.01.26,2.03.2,3.06-.03.53-.06,1.06-.13,1.59-.04.29-.13.37-.42.4-1.15.09-2.29.19-3.45.05-.23-.03-.48-.02-.71-.02-2.48,0-4.97,0-7.45,0-.1,0-.21-.02-.32.04ZM42.22,29.1h0c.99,0,1.98,0,2.97,0,.23,0,.46-.02.67-.09.25-.09.26-.1.26-.36,0-1.3-.86-2.53-2.11-3.02-.48-.19-.97-.24-1.48-.23-.98.02-1.82.36-2.51,1.05-.53.53-.84,1.19-1.03,1.91-.05.19-.08.39-.12.59-.03.13.03.17.15.16.06,0,.11,0,.17,0,1.01,0,2.01,0,3.02,0Z"/>
      <path class="cls-2" d="M19.45,19.65c.95,3.47,2.09,6.89,3.17,10.32-.22.06-5.96.08-6.3.02,0-.04,0-.08.02-.11.49-1.3.84-2.64,1.25-3.97.46-1.54.98-3.06,1.4-4.61.14-.5.25-1.02.37-1.52.01-.04.02-.08.03-.13.02,0,.04,0,.06,0Z"/>
      <path class="cls-2" d="M42.22,29.1c-1.01,0-2.01,0-3.02,0-.06,0-.11,0-.17,0-.12,0-.18-.04-.15-.16.04-.2.07-.39.12-.59.19-.72.5-1.38,1.03-1.91.69-.69,1.53-1.03,2.51-1.05.51,0,1,.04,1.48.23,1.24.48,2.11,1.72,2.11,3.02,0,.26-.01.28-.26.36-.22.08-.45.09-.67.09-.99,0-1.98,0-2.97,0h0Z"/>
    </g>
  </g>
</svg>