<?xml version="1.0" encoding="UTF-8"?>
<svg id="Camada_2" data-name="Camada 2" xmlns="http://www.w3.org/2000/svg" xmlns:xlink="http://www.w3.org/1999/xlink" viewBox="0 0 60 47.81">
  <defs>
    <style>
      .cls-1 {
        fill: url(#Gradiente_sem_nome_2);
        stroke: #fff;
      }

      .cls-2 {
        fill: url(#Gradiente_sem_nome_3);
        stroke-width: 0px;
      }
    </style>
    <linearGradient id="Gradiente_sem_nome_3" data-name="Gradiente sem nome 3" x1="6.04" y1="545.4" x2="58.47" y2="503.78" gradientTransform="translate(0 550.29) scale(1 -1)" gradientUnits="userSpaceOnUse">
      <stop offset="0" stop-color="#9013fe"/>
      <stop offset="1" stop-color="#6610f2"/>
    </linearGradient>
    <linearGradient id="Gradiente_sem_nome_2" data-name="Gradiente sem nome 2" x1="22.17" y1="537.13" x2="33.89" y2="517.31" gradientTransform="translate(0 550.29) scale(1 -1)" gradientUnits="userSpaceOnUse">
      <stop offset="0" stop-color="#fff"/>
      <stop offset="1" stop-color="#f1e5fc"/>
    </linearGradient>
  </defs>
  <g id="Camada_1-2" data-name="Camada 1">
    <g>
      <path class="cls-2" d="M6.62,6.25c-.11-3.25,2.42-6.25,5.84-6.25h35.08c3.42,0,5.96,3,5.84,6.25-.11,3.12.03,7.17,1.05,10.47,1.02,3.31,2.74,5.4,5.56,5.67v3.05c-2.82.27-4.54,2.36-5.56,5.67-1.02,3.3-1.16,7.34-1.05,10.47.11,3.25-2.42,6.25-5.84,6.25H12.46c-3.42,0-5.96-3-5.84-6.25.11-3.12-.03-7.17-1.05-10.47-1.02-3.31-2.75-5.4-5.57-5.67v-3.05c2.82-.27,4.55-2.36,5.57-5.67,1.02-3.3,1.16-7.34,1.05-10.47Z"/>
      <path class="cls-1" d="M31.3,36.62c5.54,0,8.88-2.71,8.88-7.19,0-3.38-2.38-5.83-5.92-6.22v-.14c2.6-.42,4.64-2.84,4.64-5.53,0-3.84-3.03-6.34-7.65-6.34h-10.4v25.43h10.45ZM24.89,14.41h5.38c2.92,0,4.59,1.3,4.59,3.67,0,2.52-1.93,3.93-5.43,3.93h-4.53v-7.6ZM24.89,33.39v-8.37h5.34c3.83,0,5.81,1.41,5.81,4.16s-1.93,4.21-5.58,4.21h-5.58Z"/>
    </g>
  </g>
</svg>