<?xml version="1.0" encoding="UTF-8"?>
<svg id="Camada_2" data-name="Camada 2" xmlns="http://www.w3.org/2000/svg" viewBox="0 0 52.86 60">
  <defs>
    <style>
      .cls-1 {
        fill: #fefefe;
      }

      .cls-1, .cls-2, .cls-3 {
        stroke-width: 0px;
      }

      .cls-2 {
        fill: #2965f0;
      }

      .cls-3 {
        fill: #264de3;
      }
    </style>
  </defs>
  <g id="Camada_1-2" data-name="Camada 1">
    <g>
      <path class="cls-3" d="M26.49,60h-.18c-.09-.03-.18-.08-.27-.1-6.99-1.94-13.99-3.88-20.98-5.82-.18-.05-.28-.11-.3-.32-.11-1.4-.24-2.8-.36-4.2-.16-1.84-.33-3.67-.49-5.51-.19-2.09-.38-4.18-.56-6.27-.16-1.85-.33-3.69-.49-5.54-.19-2.08-.38-4.16-.56-6.24-.19-2.08-.37-4.16-.55-6.24-.19-2.08-.38-4.16-.56-6.24-.19-2.08-.37-4.16-.55-6.24C.43,4.98.22,2.69.01.39-.02,0-.01,0,.37,0,17.69,0,35.01,0,52.33,0,52.9,0,52.89,0,52.84.56c-.21,2.29-.42,4.59-.62,6.88-.19,2.08-.37,4.16-.55,6.24-.2,2.29-.42,4.59-.62,6.88-.19,2.08-.37,4.16-.55,6.24-.2,2.29-.42,4.59-.62,6.88-.19,2.08-.37,4.16-.55,6.24-.2,2.29-.42,4.59-.62,6.88-.2,2.29-.41,4.59-.6,6.88-.02.22-.09.33-.32.4-6.22,1.71-12.43,3.44-18.65,5.16-.88.24-1.77.46-2.64.75ZM26.43,17.68c0,2.25,0,4.5,0,6.75-.13,0-.25.02-.38.02-4.8,0-9.61,0-14.41,0-.6,0-.61,0-.56.6.17,1.91.35,3.81.5,5.72.02.27.11.31.35.31,4.71,0,9.41,0,14.12,0,.13,0,.25.01.38.02,0,3.52,0,7.04,0,10.56-.03,0-.06.02-.09,0-2.38-.64-4.76-1.28-7.14-1.92-.15-.04-.2-.12-.21-.26-.14-1.59-.28-3.19-.41-4.78-.02-.23-.09-.29-.31-.29-2.03,0-4.06,0-6.09,0-.22,0-.27.04-.25.27.16,1.64.3,3.28.44,4.93.15,1.63.3,3.26.43,4.9.02.24.11.32.33.38,4.43,1.22,8.86,2.45,13.29,3.68,0,2.16,0,4.32,0,6.47,0,.35.03.38.37.29,1.53-.42,3.07-.85,4.6-1.27,2.82-.78,5.64-1.56,8.46-2.35,1.25-.35,2.5-.7,3.75-1.04.21-.06.33-.14.34-.39.02-.49.08-.97.12-1.45.09-1.01.18-2.02.27-3.02.07-.75.13-1.49.19-2.24.07-.79.15-1.57.22-2.36.07-.75.13-1.49.2-2.24.07-.76.14-1.51.21-2.27.07-.76.13-1.51.19-2.27.09-1.03.19-2.06.28-3.08.07-.74.13-1.47.2-2.21.07-.77.15-1.53.21-2.3.07-.76.13-1.51.2-2.27.09-1,.18-2,.27-3,.07-.77.13-1.53.2-2.3.07-.76.14-1.51.21-2.27.07-.76.13-1.51.19-2.27.09-1.02.18-2.04.28-3.05.07-.75.13-1.49.2-2.24.07-.79.14-1.57.21-2.36.07-.76.12-1.51.2-2.27.04-.37.03-.39-.33-.39-6.96,0-13.92,0-20.88,0-.36,0-.37.01-.37.38,0,2.08,0,4.16,0,6.24-.14,0-.27.02-.41.02-5.28,0-10.56,0-15.84,0-.29,0-.36.07-.33.36.19,1.97.37,3.94.54,5.92.02.26.1.35.38.35,5.08-.01,10.17,0,15.25,0,.14,0,.27-.02.41.03Z"/>
      <path class="cls-1" d="M26.43,31.08c-.13,0-.25-.02-.38-.02-4.71,0-9.41,0-14.12,0-.24,0-.33-.04-.35-.31-.16-1.91-.34-3.81-.5-5.72-.05-.6-.04-.6.56-.6,4.8,0,9.61,0,14.41,0,.13,0,.25-.01.38-.02.02,0,.04,0,.06,0,2.81,0,5.62,0,8.44,0,.22,0,.22-.1.24-.27.18-2.06.35-4.12.55-6.18.03-.31-.06-.35-.33-.35-2.88,0-5.76,0-8.64,0-.11,0-.21.01-.32.02-.13-.05-.27-.03-.41-.03-5.08,0-10.17,0-15.25,0-.28,0-.36-.09-.38-.35-.17-1.97-.35-3.94-.54-5.92-.03-.29.05-.36.33-.36,5.28,0,10.56,0,15.84,0,.14,0,.27-.01.41-.02.13,0,.25.02.38.02,5.24,0,10.48,0,15.72,0,.07,0,.14,0,.2,0,.21-.03.26.05.24.26-.08.68-.13,1.36-.19,2.04-.3,3.4-.6,6.8-.9,10.2-.32,3.6-.65,7.19-.97,10.79-.3,3.39-.6,6.78-.9,10.18-.02.21-.09.3-.3.36-2.01.55-4.02,1.11-6.03,1.66-2.42.67-4.84,1.35-7.26,2.02-4.43-1.23-8.86-2.46-13.29-3.68-.22-.06-.31-.14-.33-.38-.13-1.63-.29-3.26-.43-4.9-.15-1.64-.28-3.28-.44-4.93-.02-.24.03-.28.25-.27,2.03,0,4.06,0,6.09,0,.22,0,.29.06.31.29.13,1.59.28,3.19.41,4.78.01.15.07.22.21.26,2.38.64,4.76,1.28,7.14,1.92.03,0,.06,0,.09,0,.1-.02.21-.05.31-.07,2.11-.57,4.22-1.14,6.32-1.71.75-.2.74-.2.8-.95.22-2.52.44-5.04.67-7.55.02-.24-.02-.3-.26-.29-2.55,0-5.1,0-7.65,0-.07,0-.14,0-.2.01Z"/>
      <path class="cls-2" d="M26.43,48.55c2.42-.67,4.84-1.35,7.26-2.02,2.01-.56,4.02-1.12,6.03-1.66.2-.06.28-.15.3-.36.29-3.39.59-6.78.9-10.18.32-3.6.65-7.19.97-10.79.3-3.4.6-6.8.9-10.2.06-.68.11-1.36.19-2.04.02-.21-.03-.29-.24-.26-.07,0-.14,0-.2,0-5.24,0-10.48,0-15.72,0-.13,0-.25-.01-.38-.02,0-2.08,0-4.16,0-6.24,0-.37,0-.38.37-.38,6.96,0,13.92,0,20.88,0,.36,0,.36.03.33.39-.08.76-.13,1.51-.2,2.27-.07.79-.14,1.57-.21,2.36-.07.75-.13,1.49-.2,2.24-.09,1.02-.19,2.04-.28,3.05-.07.76-.13,1.51-.19,2.27-.07.76-.14,1.51-.21,2.27-.07.77-.13,1.53-.2,2.3-.09,1-.18,2-.27,3-.07.76-.13,1.51-.2,2.27-.07.77-.14,1.53-.21,2.3-.07.74-.13,1.47-.2,2.21-.09,1.03-.19,2.06-.28,3.08-.07.76-.13,1.51-.19,2.27-.07.76-.14,1.51-.21,2.27-.07.75-.13,1.49-.2,2.24-.07.79-.15,1.57-.22,2.36-.07.75-.13,1.49-.19,2.24-.09,1.01-.18,2.02-.27,3.02-.04.48-.11.97-.12,1.45,0,.25-.14.33-.34.39-1.25.34-2.5.69-3.75,1.04-2.82.78-5.64,1.56-8.46,2.35-1.53.42-3.07.85-4.6,1.27-.34.09-.37.07-.37-.29,0-2.16,0-4.32,0-6.47Z"/>
      <path class="cls-2" d="M26.43,31.08c.07,0,.14-.01.2-.01,2.55,0,5.1,0,7.65,0,.24,0,.28.06.26.29-.23,2.52-.45,5.03-.67,7.55-.07.75-.06.75-.8.95-2.11.57-4.22,1.14-6.32,1.71-.1.03-.21.05-.31.07,0-3.52,0-7.04,0-10.56Z"/>
      <path class="cls-2" d="M26.43,17.68c.11,0,.21-.02.32-.02,2.88,0,5.76,0,8.64,0,.27,0,.36.03.33.35-.2,2.06-.37,4.12-.55,6.18-.01.16-.02.27-.24.27-2.81,0-5.62,0-8.44,0-.02,0-.04,0-.06,0,0-2.25,0-4.5,0-6.75Z"/>
    </g>
  </g>
</svg>