<?xml version="1.0" encoding="UTF-8"?>
<svg id="Camada_2" data-name="Camada 2" xmlns="http://www.w3.org/2000/svg" viewBox="0 0 59.87 59.84">
  <defs>
    <style>
      .cls-1 {
        fill: #ef5034;
        stroke-width: 0px;
      }
    </style>
  </defs>
  <g id="Camada_1-2" data-name="Camada 1">
    <path class="cls-1" d="M28.78,0h2.03c1.17.44,2.02,1.29,2.88,2.15,8.07,8.08,16.14,16.16,24.23,24.23.83.83,1.6,1.68,1.94,2.83v1.72c-.56,1.39-1.68,2.33-2.7,3.35-8.01,8.01-16.02,16.02-24.02,24.02-.18.18-.36.38-.56.55-1.57,1.37-3.82,1.3-5.3-.15-1.26-1.24-2.52-2.49-3.77-3.74-7.31-7.31-14.62-14.62-21.93-21.92-.18-.18-.37-.37-.54-.56-1.41-1.6-1.39-3.86.11-5.36,5.83-5.85,11.67-11.67,17.5-17.52.33-.33.5-.37.85-.02,1.97,2.01,3.96,3.99,5.96,5.96.33.33.35.59.23,1.03-.54,2.03.26,4.07,2.07,5.1.51.29.59.61.59,1.11-.01,4.95-.02,9.89,0,14.84,0,.58-.15.91-.68,1.22-1.75,1.03-2.52,3.09-1.99,5.06.5,1.87,2.27,3.26,4.18,3.3,2.15.05,3.9-1.15,4.55-3.11.63-1.91-.06-4.03-1.76-5.15-.47-.31-.58-.63-.57-1.14.02-4.87,0-9.74,0-14.61,0-.25,0-.5,0-.76.36.04.47.27.63.43,1.72,1.71,3.42,3.43,5.15,5.12.35.34.4.62.28,1.08-.64,2.38.68,4.75,3.02,5.5,2.31.74,4.79-.47,5.63-2.78.59-1.62.33-3.14-.77-4.46-1.1-1.31-2.54-1.9-4.24-1.56-.62.12-.99-.03-1.41-.46-1.84-1.88-3.71-3.73-5.57-5.58-.28-.28-.39-.51-.3-.94.7-3.35-2.07-6.1-5.45-5.44-.3.06-.52.09-.76-.16-2.09-2.11-4.19-4.21-6.29-6.3-.24-.24-.26-.4,0-.63,2.29-2.05,4.09-4.63,6.78-6.25Z"/>
  </g>
</svg>