<?xml version="1.0" encoding="UTF-8"?>
<svg id="Camada_2" data-name="Camada 2" xmlns="http://www.w3.org/2000/svg" viewBox="0 0 51.76 60">
  <defs>
    <style>
      .cls-1 {
        fill: #f0efef;
      }

      .cls-1, .cls-2, .cls-3, .cls-4, .cls-5 {
        stroke-width: 0px;
      }

      .cls-2 {
        fill: #010101;
      }

      .cls-3 {
        fill: #0a1825;
      }

      .cls-4 {
        fill: none;
      }

      .cls-6 {
        opacity: .3;
      }

      .cls-6, .cls-7 {
        isolation: isolate;
      }

      .cls-7 {
        opacity: .4;
      }

      .cls-5 {
        fill: #8ac640;
      }
    </style>
  </defs>
  <g id="Camada_1-2" data-name="Camada 1">
    <g>
      <path class="cls-2" d="M8.12,26.23c-1.75.82-6.39,4.53-7.28,5.63-.93,1.1-1.2-.62-.24-3.47.76-2.3,2.68-5.43,5.91-8.1,1.89-1.55,6.04-3.78,8.59-5.08.52-.27,7.18-3.09,13.12-4.5.52-.14-.62.86-.79,1.41-.89,2.61-18.72,13.81-18.72,13.81l-.58.31ZM33.23,57.72c.31,1.85.03,1.99-1.89,2.23-1.92.24-3.33-.48-3.85-.96-.52-.48-.62-1.55-.1-2.51.31-.62.62-.82.79-1.58.17-.72.31-.89.45-1.17.14-.24.17-.48.21-2.16.03-1.68,0-4.84.17-6.18.17-1.37,6.11.62,6.11.62,0,0-1.41,3.5-1.79,4.36-.38.86-.34,2.51-.34,2.85s-.14,1.03-.24,1.06c-.1.03.34.93.14,1.44-.14.48.31,1.72.34,1.99h0ZM35.49,5.21c-.21-1.3,0-3.88.27-4.29.86-1.17,5.39-1.3,6.35.07.41.62.38,2.06.31,2.99-.07.93-.31,2.92-.34,3.57-.03.48-5.01,1.24-6.11-.07-.31-.34-.48-2.27-.48-2.27h0ZM45.59,54.39c2.09,1.51,3.71,1.79,4.77,2.34,1.06.55.79,1.61-1,1.92-1.44.27-3.71-.27-5.22-.27s-4.88.17-5.77-.45c-1.03-.72-.58-2.06-.58-2.06.27-.76.96-2.44.76-3.81s-.48-2.13-1-3.4c-.52-1.27-.89-4.4-.41-4.57s.34,0,.96.14c.62.14,1.3.34,2.64.34s2.82-.21,3.33-.31c.52-.1.93-.21.76.86-.17,1.06-.69,3.06-.72,4.6-.03,1.55-.03,3.33.07,3.64.1.31.86.65,1.41,1.03h0Z"/>
      <path class="cls-5" d="M38.24,8.65c-3.78,3.26-11.09,4.16-21.94,8.35-2.78,1.06-10.2,4.26-11.99,7.59,6.01-3.47,8.24,1.3,8.72,6.22.45,4.6,2.75,7.01,8.65,6.87,6.08-.14,7.93,3.4,9.62,7.56,3.26-15.9,8.48-18.99,11.85-21.7,7.14-5.8-1.65-16.04-4.91-14.87h0Z"/>
      <path class="cls-5" d="M38.24,8.65c-9.07,3.16-18.03,3.95-28.57,10.44-2.51,1.55-7.8,5.05-8.83,11.74,3.85-4.26,12.74-9.62,23.63-13.02,5.49-1.72,9.51-2.85,14.39-4.74-.34-2.2-.34-3.06-.62-4.43h0Z"/>
      <path class="cls-2" d="M49.81,27.46s-.65,2.23-1.96,2.95c0,0-.96.34-2.88-.72-.55-.31-.96-1.37-.93-1.72.03-.82.55-1.2.55-1.2,0,0,.55-.93,1.2-.89.65.03,1.75.14,2.1-.17.31-.34,1.99.62,1.92,1.75h0ZM35.8,5.86s-.14,1.75-.38,2.85c-.03.21-1.06.31-1.82.62,1.44,4.12,10.13,4.09,11.26,2.06-.55-.38-1.65-.96-2.16-1.17-.52-.21-.48-.17-.52-1.13-.03-.96-.1-2.75-.17-3.23-.07-.48-5.39-.48-6.22,0h0Z"/>
      <path class="cls-1" d="M36.14,5.86s0,1-.1,1.96c-.03.45-.07.72-.14,1.06-.03.21,1.17,1.03,1.51,2.85,1.65,3.67,5.46,1.85,7.04.1-.55-.38-1.44-.89-2.47-1.3-.52-.21-.27-.65-.31-1.61-.03-.96-.17-2.37-.24-2.88-.07-.52-4.46-.65-5.29-.17h0Z"/>
      <g>
        <path class="cls-2" d="M35.8,5.86s-.03.62-.14,1.34c.45.45,1.03,1.06,1.48,1.44.31.27,1.06.24,1.75.24.62,0,1.17.07,1.41-.07.55-.27,1.34-.96,1.79-1.48-.03-.62-.07-1.2-.1-1.48-.03-.48-5.36-.48-6.18,0Z"/>
        <path class="cls-2" d="M38.93,8.47c-.41,0-.89-.03-1.27-.1-.17-.03-.34-.14-.48-.21-.24-.17-.48-.38-.76-.58-.55-.41-.58-.65-.58-.76.24-2.16-.07-3.98-.07-3.98,0,0-.24-.93,1.06-1.17s2.09-.27,2.09-.27c0,0,.82,0,2.09.27,1.3.24,1.06,1.17,1.06,1.17,0,0-.31,1.82-.07,3.98,0,.1-.03.34-.58.76-.48.34-.86.72-1.24.79-.38.07-.86.1-1.27.1Z"/>
        <path class="cls-2" d="M38.93.51c-2.27,0-2.71.62-3.37,1.3-.14.17-.03,1.2.21,3.4h.31s-.21-.62-.17-1.34.17-.69.07-.86c-.14-.21-.41-.55.21-.89.62-.34,1.58.27,2.75.31,1.17-.03,2.16-.65,2.78-.31.62.34.34.69.21.89-.14.21.03.14.07.86.03.72-.17,1.34-.17,1.34h.31c.21-2.2.34-3.16.24-3.33-.58-.76-1.17-1.34-3.43-1.37ZM49.81,27.57s-.65,2.09-1.92,2.82c-.27-.14-.24-.34-.48-.65-.07-.1-.31-.17-.41-.27-.1-.1-.07-.27-.24-.41-.14-.14-.24-.03-.38-.14-.14-.14-.17-.31-.27-.41-.07-.07-.34-.1-.41-.17-.17-.17-1.68-.48-1.61-.82.14-.52.41-.89.41-.89,0,0,.65-.96,1.3-.93.65.03,1.27.17,1.61-.14.38-.34,2.51.93,2.4,2.03h0Z"/>
        <path class="cls-2" d="M45.35,12.39s2.16-.52,3.64.89c1.48,1.44,1.37,3.23.93,4.33.38.45,1.06,1.68.55,3.16,2.27,1.92,1.27,4.88-.76,6.83,0,0-.48-1.79-2.4-1.89.07-.69-1.79-1.24-.93-3.02-1.3-.31-1.27-1.2-1.48-2.3-.17-1.1.45-8,.45-8h0Z"/>
      </g>
      <path class="cls-1" d="M44.56,13.35s2.51-1.27,3.98.17c1.48,1.44,1.06,3.02.62,4.12.38.45,1.27,1.72.72,3.23-.1.34-.86.34-1.41,1.24,1.37-.79,2.23-.58,2.54.41.48,1.55-.58,3.4-1.51,4.43,0-.03-.03-.07-.03-.1-.14.52-.31,1.51-1.34,2.61-.52.55-.93.48-1.51.34-.69-.17-.93-.48-1.89-1-.55-.31-.24-.69-.24-1,0-.07.07-.17.17-.31.07-.17.27-.45.58-.76,0,0,.45-.62,1.1-.58.65.03,1.34-.1,1.51-.27,0-1.2-1.37-1.24-.89-3.3.03-.1.21-.27.76-.34-.82-.17-1.2-.21-1.79-.76-.41-.38-.72-.86-.82-1.48-.21-1.06-.55-6.66-.55-6.66h0Z"/>
      <path class="cls-2" d="M37.31,11.19c-.21-.27-1.27-1.65-3.3-2.2-.58-.17-.96.31-1.55.65-.17-.1-.93-.45-1.34-.21s-.69.48-1.1.65c-.21-.1-.76-.1-1.2.07-.45.14-1.13.45-1.79,1.34-.41,1.48,7.28.38,7.28.38l2.99-.69Z"/>
      <path class="cls-5" d="M37.38,11.19c-1.1-.38-.93-1.65-3.37-1.85-.48-.03-.79.34-1.13.58.17.17.34.45.45.72-.31-.34-.86-.79-1.41-.89-.52-.1-.86.27-1.41.55.1.1.21.27.34.48-.48-.31-.82-.41-1.48-.17-.45.14-1.3.52-1.96,1.44-.41,1.48,6.94-.17,6.94-.17l3.02-.69Z"/>
      <path class="cls-2" d="M43.84,11.74s0-.38-.03-.72c0-.07-.27-.24-.27-.31l-.07-.07s.55-.31.96-.14c.45.14.69.72.69.72.79-.27.86.03,1.24.45.82-.17.93.14,1.44.89,0,0-.62-.1-1.82.1-1.17.17-2.13-.96-2.13-.93h0Z"/>
      <path class="cls-5" d="M43.7,11.56s.21-.17.14-.21c.38-.21.89-.45,1.13.21.79-.27.89.1,1.27.52.96-.45,1.03.1,1.1.34-.31,0-.76.03-1.37.1-1.17.17-2.3-1-2.27-.96Z"/>
      <path class="cls-2" d="M32.02,10.71s1.96.69,3.61.58c1.65-.14,4.46-.27,5.98.62,0,0,1.55-.55,2.99-.17,1.44.38,4.09,2.85,3.3,5.46-.07.17-.52.45-1.03.62,0,0,.27,1.17-.21,2.13-.48.93-1.55,2.71-1.58,5.19-.03.41-.1,1.27-.17,1.68-2.68-.1-6.8-1.1-10.85-1.03.03-.45.07-.72.1-1.17h.1c-.21-1.13-.27-1.72-.48-2.58-1.3-.82-2.68-1.79-3.85-3.61-1.13-1.82,2.09-7.73,2.09-7.73h0ZM45.28,29.25s2.13,7.62-.38,10.82c0,0,.38,1.48-.48,3.06-.14.69-.31,1.3-.41,1.99-.45,2.85-1.2,4.05-1.41,8.62l-2.06-.03s-.24-3.3-.96-5.05c-.41-1-2.03-2.34-1.96-3.67.07-1.03.27-1.89,2.03-3.26.14-1.99-1.85-3.88-1.55-11.3l7.18-1.17Z"/>
      <path class="cls-1" d="M44.66,28.94c.55,3.5,1.82,8.69-.48,11.23.14.64.15,1.31.03,1.96-.07.41-.21.86-.38,1.34-.34.82-.48,2.03-.58,2.75-.45,2.85-.45,2.99-.65,7.56l-2.06-.03s-.24-3.3-.96-5.05c-.41-1-1.27-1.85-1.34-3.19-.07-1.03.65-3.09,2.37-3.02-.1-4.16-2.03-3.33-2.54-11.99l6.59-1.55ZM32.02,10.71s.76.24,1.58.31c.82.07,1.72,0,2.51-.03,1.65-.14,3.98-.31,5.53.58,0,0,.86-.27,1.79-.21.41.03.82.38,1.3.52,1.51.38,2.95,2.88,2.3,5.15-.07.17-.55,0-1.1.17.1.48.17,1.58-.38,2.75-.58,1.17-1.34,2.68-1.2,5.56-3.61-.17-5.22-.41-8.79-.58-.31-1.27-.52-2.54-.55-3.19.48-.24.76-.45,1.13-.86-1.03.17-1.44.1-2.06-.24-.62-.34-1.72-1.44-2.27-2.16-.07-.07-.45,1.06-1.3,1.1-.31-.45,1-1.72.76-2.2-.86-1.75.76-6.66.76-6.66h0Z"/>
      <path class="cls-2" d="M44.94,26.09s.07,1.24.07,1.55c0,.34.27,1.37.31,1.85-.38.65-2.03,2.13-5.01,2.68-2.95.62-6.87-4.02-6.87-4.02.1-.45.45-1.75.69-2.44.03-.07.1-.24.1-.31.31-.45,10.71.69,10.71.69Z"/>
      <path class="cls-1" d="M44.18,26.19c0,.86.14,1.48.24,2.03.17,1,.45,1.65.45,2.3,0,1.99-2.61,1.65-4.81,1.72-2.95.62-5.46-4.02-5.46-4.02.21-.79.34-1.68.65-2.44.03-.41.1-.93.14-1.17,4.19,0,7.14.24,8.86.41.07.38,0,1.03-.07,1.17h0Z"/>
      <path class="cls-2" d="M40.88,30.62s-1.82-4.05-7.28-2.85c-1.3,3.67-3.06,7.9-1.92,12.47-1.13,1.55-2.44,2.4-2.44,5.25s.14,3.33.14,3.33l4.02.21s1.3-1.68,1.82-3.5c.14-.52.27-1.44.17-2.51.14-.21.72-.69.79-1.61,0,0,1.96-1.03,3.09-3.54,1.06-2.27.79-4.22,1.61-7.25h0Z"/>
      <path class="cls-1" d="M40.88,30.62c-.1-.38-1.48-4.09-6.56-2.99-2.99,7.97-1.89,11.26-1.44,12.71-2.03,2.58-2.95,3.13-2.54,8.35h2.68c1.24-1.96,1.51-2.68,1.58-5.25,0-.1-.38.21-.65.55.21-1.06.79-1.27,1.24-1.92.21-.27.38-.69.38-1.24,2.4-1.61,3.3-3.64,3.81-5.74.41-1.44.89-3.81,1.51-4.46h0Z"/>
      <g>
        <path class="cls-2" d="M32.4,25.1s.93.03,1.75.31c.79.27.79.45,1.1.79s1.06.86.93,1.37c-.07.27-.24.34-.48.58-.1.1-.86.93-1.03,1.03-.1.07-.24.17-.34.24l-.52.34c-.34.17-.58.27-.96.24,0,0-.86-.03-1.41-.62,0,0-.07-.27.07-.41,0,0-.72-.62-.93-1.03-.21-.41-.21-1-.07-1.3.07-.31,1.41-1.17,1.89-1.55h0ZM33.26,58.51l-.1.86s-.31.38-2.61.34c-2.34-.03-2.95-.76-3.16-1.13l-.14-.89s.45-.65.55-.65c.76.07,3.33,1.1,5.12,1.37.17,0,.21.07.34.1h0ZM38.24,56.76c0,.38-.03.38-.03.76.41.31,1.44.48,3.4.45,2.85-.07,5.49.86,8.72.31l.03-.62-.31-.03-11.44-.93-.38.07Z"/>
        <path class="cls-2" d="M40.75,57.96h.86c1.85-.07,3.61.34,5.49.45,1-.03,2.23-.27,2.13-1l-9.75-.82c-.58.65-.14,1.2,1.27,1.37h0ZM29.55,43.5c.31.21,2.4,1.44,5.8,1.27-.07.65-.03,1.92-1.55,4.16-.76,1.1-1.41,3.02-1.55,5.46.03.55.34,1.03-.07,1.75.14.45.69,1.34.96,1.89.27.55.41,1.17-1.41,1.2-1.85.03-4.84-.17-4.43-1.61.21-.76.79-1.55.86-1.85.07-.31.07-1.24.65-1.85.52-1.72.34-3.37.24-4.91-.17-1.61-.21-4.19.48-5.49h0ZM32.74,15.51c2.44-3.26.38-5.87-3.54-5.08-1.58.31-3.16,1.41-3.26,3.4-.52.07-1.68.14-2.27,2.27-.45,1.65-.69,1.96-1.48,2.78-.52.58.03,1.79.41,2.64,1.27,2.95,5.19,3.23,7.83,5.46.89-.24,1.82-1.24,2.09-1.89-2.23-2.64-1.75-3.67-2.64-5.05.96-.34,3.16-1.68,2.85-4.53h0Z"/>
      </g>
      <path class="cls-1" d="M32.26,15.31c.14-.21.38-.65.48-.82.03-.03.41.62.45.58.93-1.51,1.17-3.71.1-3.92-.24-.03-.69-.14-1.06-.27-.69-.24-1.3-.24-2.4-.03-1.51.27-3.02,1.37-3.02,2.95,0,.1,1.06.41,1.37,1.68-.52-.72-1.41-1.51-2.47-.82-1.13.72-.55,2.37-2.06,4.09-.52.58-.45,1.27.1,2.64.89,2.16,5.12,3.33,7.42,5.39.55-.24.93-.79,1.2-1.2-1.55-1.61-2.16-3.13-2.61-4.22-.55-1.27-1.17-1.99-2.37-2.95.62.24,1.1.48,1.37.69.31.21.76.24,1.17.1,1.48-.51,2.27-2.58,2.34-3.88h0Z"/>
      <path class="cls-2" d="M47.2,15.86c-.1,1.3-1.06.65-1.58.41-1.03-.45-2.06-.76-3.26-.76s-2.75.1-4.09.45c-1.85.52-2.4.48-3.23.07-.82-.45-2.27-1.55-2.27-1.55,0,0-.03.34.31.79.45.55,1.44,1.24,2.78,1.68.65.21,1.17.07,1.75-.07,3.06-.76,6.28-.89,9,.76.14.07.62-.14.82-.45.27-.45-.24-1.34-.24-1.34Z"/>
      <path class="cls-3" d="M31.58,28.94c.27.17.62.27,1,.58,0,0-.31,0-.45-.14-.17-.1-.52-.41-.55-.45Z"/>
      <path class="cls-1" d="M41.5,1.71c-.1-.31-.86-.86-2.61-.86-1.89,0-2.44.58-2.47.89,0,.1-.14,1.2-.17,1.65,0,0,0,.55.03,1.37.03.55.17.86.24,1.58.07.76.27,1.24.65,1.85.17.1.31.21.48.24.69.14,1.89.17,2.54,0,.38-.1.86-.76.96-1.34.14-.72.27-1.24.31-1.68.07-.45.1-1.44.14-1.72.1-.76-.07-1.92-.1-1.99h0Z"/>
      <path class="cls-2" d="M37.9,44.16s1.82.79,6.32.1c0,0-1.27,6.39-.69,9.58,0,0,.58.82,4.91,2.4,0,0,1.92.48,1.85,1.44,0,0,.07.21-2.27.14s-4.53-.48-6.08-.48-3.19.07-3.47-.38c-.31-.41.07-1.48.52-2.1.48-.65.34-1.13.31-2.3-.1-3.06-2.44-6.22-1.41-8.41h0Z"/>
      <path class="cls-5" d="M37.52,44.74c-.24.34.03,1.65.38,2.92.34,1.27,1.1,2.03,1.27,4.12.17,2.06.21,2.34-.38,3.54s-.76,2.3,1.27,2.34,3.13-.03,5.19.27c2.06.31,2.78.41,3.92.24s1.37-.55.89-.89c-.48-.34-2.47-.72-3.33-1.41-.82-.62-3.16-1.65-3.19-1.92-.1-.93-.14-4.29.03-5.39.17-1.1.41-2.68.48-3.09s.41-.82-.17-.69c-.58.14-2.78.45-4.43.34-1.65-.1-1.82-.48-1.92-.38h0Z"/>
      <g class="cls-6">
        <path class="cls-2" d="M38.69,55.35c.58.27,1.44.48,2.09.48,0,0-.24,1.13.14,1.82.38.69-2.75.27-2.75.27l-.14-2.44.65-.14ZM47.79,58.3c.55-.17.93-.79.48-1.37-.48-.58-.89-.69-.27-.72.62-.03,2.88,1.34,2.88,1.34l-1.17,1.06-1.92-.31ZM37.42,46.08c.79.27,1.99.34,3.02.31,1.03-.03,2.58-.17,3.57-.52,1-.34.58.38.58.38l-.55.52s-1.3.52-3.43.48c-2.51-.03-3.26-.31-3.26-.31l.07-.86ZM37.48,47.8c.79.27,1.99.34,3.02.31,1.03-.03,2.4-.03,3.4-.41.41-.14.17.45.17.45l-.17.31s-1.34.48-3.43.45c-2.51-.03-2.95-.24-2.95-.24l-.03-.86Z"/>
      </g>
      <path class="cls-4" d="M37.9,44.16s2.99,1.06,6.35.34c0,0-1.3,6.15-.72,9.31,0,0,.58.82,4.91,2.4,0,0,1.92.48,1.85,1.44,0,0,.07.21-2.27.14-2.34-.07-4.53-.48-6.08-.48s-3.19.07-3.47-.38c-.31-.41.07-1.48.52-2.09.48-.65.34-1.13.31-2.3-.1-3.02-2.44-6.18-1.41-8.38h0Z"/>
      <path class="cls-4" d="M37.9,44.16s2.99,1.03,6.35.31c0,0-1.3,6.18-.72,9.34,0,0,.58.82,4.91,2.4,0,0,1.92.48,1.85,1.44,0,0,.07.21-2.27.14-2.34-.07-4.57-.72-6.08-.48-1.61.27-3.19.17-3.47-.38-.24-.45.07-1.48.52-2.09.48-.65.34-1.13.31-2.3-.1-3.02-2.44-6.18-1.41-8.38h0Z"/>
      <path class="cls-2" d="M35.22,23.72c0,.24,2.68,1.58,4.16,1.85,1.48.27,4.57,0,5.05-.1l-.07.48s-3.67.55-6.49-.21c-2.82-.76-2.51-.93-2.51-.93l-.14-1.1Z"/>
      <path class="cls-1" d="M29.48,53.02c.41.21,1.89.58,2.85.38.14-.03,0-2.37.38-3.43.55-1.48,1.44-2.68,1.85-5.29-1.44-.14-3.09-.52-3.95-.79-1.1,3.37-.72,6.25-1.13,9.13h0ZM31.78,55.18c.24.07.41.34.48.17.14-.31-.24-.89-.27-1.3v-.03c-.31-.27-2.4-.31-2.27-.17-.24.45-.62.38-.76,1.27-.07.45.48.07,1,.03-.93.62-1.99,1.41-2.16,2.09-.21.96.14,1.24,1.17,1.75.89.21,1.96.24,2.78.21.93-.17,1.1-.62.82-1.24-.41-.93-.69-2.13-.79-2.78h0Z"/>
      <path class="cls-2" d="M32.16,10.57c1.13.65,2.71.48,3.3.45.14,0,1.51-.24,1.58-.21.14.03.14.14.14.14,0,0-.52.27-1.68.34-1.1.07-2.4,0-3.13-.34-.86-.38-.21-.38-.21-.38h0ZM43.84,11.22c.21.14,1.55.65,2.13,1.27.52.55.24.52.14.38-.14-.17-1.2-.89-1.61-1.06s-.93-.48-.93-.55.27-.03.27-.03h0Z"/>
      <path class="cls-1" d="M31.99,25.47c1-.07,2.03.17,2.68.86.34.34.89.72.82,1.06,0,.1-.21.38-.38.58-.1.14-.41.45-.52.55-.14.1-.62.48-.72.55-.1.07-.24.24-.34.27-.34.17-.72.03-1.06-.14-.34-.17.07-.21-.31-.48-.93-.65-1.44-1.1-1.06-2.37.03-.24.41-.52.89-.89h0Z"/>
      <g class="cls-7">
        <path class="cls-2" d="M23.23,17.61c-3.09,1.24-10.96,5.15-13.19,6.35,1.85,1.17,2.71,3.98,2.99,6.83.03.27.07.52.1.79.03.24.07.41.1.52,0,.03,0,.1.03.14,2.03-5.53,9.27-11.37,9.55-11.81.14-.21-.17-1.1.31-1.96.62-1.1,1.82-1.58.1-.86h0ZM30.58,43.54c1.58-3.16,1.61-6.18,1.58-9.72,0-1.48,1.06-3.57.52-2.99-2.06,2.3-7.25,6.63-10.99,6.87,5.25-.17,7.31,2.47,8.89,5.84Z"/>
      </g>
      <path class="cls-2" d="M7.02,26.88c1.96-1.41,12.09-6.8,14.53-7.56,2.44-.79,1.68-1.72,1.68-1.72,0,0-9.89,4.26-15.8,7.93"/>
      <g class="cls-7">
        <path class="cls-2" d="M35.87,16.96c-.79-.31-1.41.62-1.2,1.51.21.89,2.06,1.89,1.96,5.15-.07,2.68-.65,3.78-.65,3.78l-1.3-1.65s-.21-3.71-.65-4.26c-.45-.55-1.85-1.55-2.4-2.06-.55-.52.62-1.2.55-2.16-.07-.93.58-2.78.58-2.78l3.13,2.47ZM40.64,31.59c-.07,2.58.52,6.39.76,8.21.24,1.82.55,1.96,0,2.78-.55.79-1.27,2.09-1.27,2.09l-2.37-.21s1.89-2.4,1.99-2.85c.1-.45-.96-3.85-.96-3.85l1.85-6.18ZM36.08,7.55c.48,1.06,1.06,1.55,1.99,1.85.55.21,2.71.48,3.57-.48.38-.45.14-1.65.14-1.65l-1.96,1.58-2.64-.48-.31-.79-.79-.03Z"/>
      </g>
      <g>
        <path class="cls-5" d="M36.28,9.92c.89.58,3.13,1.13,3.74,1.24.62.14,1.61-.65,2.09-.86.52-.24,1.41-.38,2.44.55.1.1-.24.55-.24.55-.03-.03-.24-.03-.52-.17-.27-.14-.52-.24-.93-.21-1.72.21-1.99.79-3.5.45s-1.89-.62-3.37-.55"/>
        <path class="cls-2" d="M40.22,11.7c-.25,0-.53-.03-.87-.11-.41-.09-.74-.18-1.03-.26-.78-.21-1.25-.34-2.3-.29v-.27c1.09-.05,1.6.09,2.37.3.29.08.61.16,1.01.26.89.2,1.33.07,1.94-.11.4-.12.84-.26,1.52-.34,0,0,0,0,0,0,.44-.04.7.07,1,.22.16.08.29.11.38.13,0,0,.02,0,.03,0,.09-.13.16-.26.17-.32-1-.89-1.85-.7-2.26-.5,0,0,0,0,0,0-.13.06-.31.16-.5.27-.53.31-1.18.7-1.68.59-.7-.12-2.91-.68-3.79-1.26l.15-.22c.85.56,3.01,1.1,3.69,1.22,0,0,0,0,0,0,.39.09,1.02-.29,1.48-.56.21-.12.38-.23.53-.29.48-.22,1.45-.44,2.58.57,0,0,0,0,0,0,.12.12.05.37-.23.73-.02.03-.06.05-.1.05-.03,0-.06,0-.08-.02-.01,0-.04,0-.06-.01-.1-.02-.25-.06-.44-.15-.26-.13-.48-.22-.85-.19-.65.08-1.08.21-1.47.33-.4.12-.75.23-1.2.23ZM44.22,11.49s0,0,0,0c0,0,0,0,0,0Z"/>
      </g>
      <path class="cls-5" d="M35.97,10.02c1.13.48,3.33,1,3.95,1.13s1.61-.48,2.09-.79c.86-.55,1.96-.1,2.47.48.34.38.48.62.48.72,0,.14-.41,0-.41,0-.24-.1-.52-.14-.72-.27-.27-.14-.55-.34-.96-.31-1.72.21-2.06.79-3.54.45s-1.85-.65-3.43-.55"/>
      <path class="cls-2" d="M30.65,42.09c-.07-.07.07-.14,0-.14-.45,0-1.06-.34-1.41-.82-1.48-2.13-3.64-3.54-7.56-3.43-5.87.14-8.21-2.27-8.65-6.87-.24-2.51-.93-4.95-2.34-6.32l-.82.52c1.58,1.37,2.09,3.61,2.44,6.66.55,4.6,4.26,6.73,8.59,6.8,4.5.07,6.11,1,7.8,3.26.55.72,1.17.96,1.65,1.06l.31-.72Z"/>
      <g class="cls-7">
        <path class="cls-2" d="M46.58,20.01c.1.52.38,1.51.93,1.99.24.24.27.31.07.31s-1.72-.07-1.72-.07l-.41-.72,1.13-1.51Z"/>
      </g>
    </g>
  </g>
</svg>