<?xml version="1.0" encoding="UTF-8"?>
<svg id="Camada_2" data-name="Camada 2" xmlns="http://www.w3.org/2000/svg" viewBox="0 0 60 58.45">
  <defs>
    <style>
      .cls-1 {
        fill: #fe3366;
      }

      .cls-1, .cls-2 {
        stroke-width: 0px;
      }

      .cls-2 {
        fill: #49021f;
      }
    </style>
  </defs>
  <g id="Camada_1-2" data-name="Camada 1">
    <g>
      <path class="cls-2" d="M0,48.81V10.29c.05-.14.11-.28.05-.43.01-.15,0-.32.04-.46.05-.24.08-.48.13-.72C.95,5.09,2.98,2.5,6.29.94,7.72.26,9.24,0,10.82,0c12.79,0,25.59,0,38.38,0,.17,0,.34,0,.51,0,.51,0,1.01.04,1.5.14,3.61.71,6.23,2.72,7.83,6.04.53,1.11.85,2.29.9,3.54,0,.07-.01.15.05.22v38.06c.02.16-.06.31-.03.47-.01.24-.01.48-.04.71-.26,1.93-.98,3.68-2.2,5.21-1.82,2.26-4.18,3.59-7.07,3.95-.19.02-.4.02-.58.1H9.99c-.06-.06-.14-.04-.21-.05-.65-.08-1.3-.18-1.93-.35-3.77-1.01-6.78-4.18-7.56-7.99-.08-.37-.14-.75-.18-1.12,0-.06.03-.16-.1-.13ZM44.3,25.44c0-4.04,0-8.08,0-12.12,0-.09,0-.17,0-.26-.02-.17-.08-.23-.25-.25-.07,0-.13,0-.2,0-1.53,0-3.06,0-4.6,0-.51,0-.53.02-.53.53,0,2.42,0,4.83,0,7.25,0,.08,0,.15,0,.23,0,.11-.04.16-.15.15-.11,0-.23,0-.34-.01-.69-.08-1.39-.05-2.08,0-1.06.07-2.09.26-3.1.57-3.95,1.24-7.02,4.74-7.27,9.31-.08,1.35.03,2.7.39,4.01.66,2.46,2.1,4.33,4.35,5.53,1.85.99,3.86,1.36,5.95,1.33,1.03-.02,2.05-.1,3.07-.25,1.57-.24,3.09-.64,4.55-1.25.32-.13.37-.24.36-.59-.06-1.06-.14-2.12-.14-3.19,0-3.66,0-7.32,0-10.98ZM16.26,28.15c0,4.2,0,8.41,0,12.61,0,.12,0,.25.01.37.02.17.11.25.28.26.07,0,.13,0,.2,0,1.52,0,3.04,0,4.57,0,.06,0,.11,0,.17,0,.22-.02.3-.1.32-.32.01-.13,0-.27,0-.4,0-8.35,0-16.7,0-25.05,0-.07,0-.13,0-.2,0-.39-.08-.46-.47-.46-1.51,0-3.03,0-4.54,0-.52,0-.55.03-.55.55,0,4.21,0,8.43,0,12.64Z"/>
      <path class="cls-1" d="M0,9.83s.03.02.05.03c.06.15,0,.29-.05.43,0-.15,0-.3,0-.46Z"/>
      <path class="cls-1" d="M60,48.52s-.03-.02-.03-.04c-.03-.16.05-.31.03-.47v.51Z"/>
      <path class="cls-1" d="M44.3,25.44c0,3.66,0,7.32,0,10.98,0,1.07.09,2.13.14,3.19.02.35-.03.46-.36.59-1.47.61-2.99,1.01-4.55,1.25-1.02.16-2.04.23-3.07.25-2.09.03-4.09-.34-5.95-1.33-2.25-1.2-3.69-3.07-4.35-5.53-.36-1.31-.46-2.66-.39-4.01.26-4.57,3.32-8.07,7.27-9.31,1.01-.32,2.05-.5,3.1-.57.69-.05,1.39-.08,2.08,0,.11.01.23,0,.34.01.11,0,.15-.05.15-.15,0-.08,0-.15,0-.23,0-2.42,0-4.83,0-7.25,0-.51.02-.53.53-.53,1.53,0,3.06,0,4.6,0,.07,0,.13,0,.2,0,.17.02.24.08.25.25,0,.08,0,.17,0,.26,0,4.04,0,8.08,0,12.12ZM38.71,31.21c0-1.73,0-3.46,0-5.19,0-.31,0-.32-.32-.37-.55-.09-1.11-.13-1.67-.08-.99.07-1.91.34-2.74.87-1.15.72-1.99,1.69-2.33,3.04-.08.31-.13.63-.16.95-.12,1.19-.01,2.35.43,3.47.45,1.13,1.2,2,2.34,2.49.69.3,1.41.44,2.16.48.61.04,1.21-.04,1.82-.06.11,0,.22-.04.33-.06.1-.02.15-.08.14-.18,0-.08,0-.15,0-.23,0-1.71,0-3.42,0-5.13Z"/>
      <path class="cls-1" d="M16.26,28.15c0-4.21,0-8.43,0-12.64,0-.52.03-.55.55-.55,1.51,0,3.03,0,4.54,0,.39,0,.47.08.47.46,0,.07,0,.13,0,.2,0,8.35,0,16.7,0,25.05,0,.13,0,.27,0,.4-.02.22-.11.3-.32.32-.06,0-.11,0-.17,0-1.52,0-3.04,0-4.57,0-.07,0-.13,0-.2,0-.18-.02-.26-.09-.28-.26-.02-.12-.01-.25-.01-.37,0-4.2,0-8.41,0-12.61Z"/>
      <path class="cls-2" d="M38.71,31.21c0,1.71,0,3.42,0,5.13,0,.08,0,.15,0,.23,0,.1-.04.16-.14.18-.11.02-.22.06-.33.06-.61.01-1.21.09-1.82.06-.75-.04-1.47-.19-2.16-.48-1.13-.49-1.89-1.36-2.34-2.49-.44-1.12-.55-2.28-.43-3.47.03-.32.08-.64.16-.95.34-1.35,1.18-2.32,2.33-3.04.84-.52,1.76-.79,2.74-.87.56-.04,1.12,0,1.67.08.32.05.32.06.32.37,0,1.73,0,3.46,0,5.19Z"/>
    </g>
  </g>
</svg>