<?xml version="1.0" encoding="UTF-8"?>
<svg id="Camada_2" data-name="Camada 2" xmlns="http://www.w3.org/2000/svg" viewBox="0 0 41.88 47.63">
  <defs>
    <style>
      .cls-1 {
        fill: #fefefe;
      }

      .cls-1, .cls-2 {
        stroke-width: 0px;
      }

      .cls-2 {
        fill: #e3a025;
      }
    </style>
  </defs>
  <g id="Camada_1-2" data-name="Camada 1">
    <g>
      <path class="cls-1" d="M20.93,0C14.03,0,7.13,0,.23,0,.19,0,.15,0,.11,0,.03,0,0,.02,0,.11c0,.23,0,.46.02.69.06.74.12,1.49.18,2.23.08.91.16,1.81.24,2.72.07.82.14,1.64.21,2.45.08.89.16,1.78.24,2.67.07.8.14,1.61.21,2.41.07.8.15,1.6.22,2.4.07.78.13,1.57.2,2.36.08.88.16,1.76.24,2.65.07.79.14,1.59.21,2.38.07.78.14,1.55.21,2.33.08.9.16,1.8.24,2.7.07.79.15,1.58.22,2.37.07.78.13,1.57.2,2.36.07.79.15,1.58.22,2.37.07.78.13,1.55.2,2.33.07.78.14,1.56.21,2.34.04.48.08.97.13,1.45.04.48.1.96.13,1.45,0,.14.06.19.17.22.94.26,1.88.53,2.82.79,1.38.38,2.76.77,4.13,1.15,1.17.33,2.34.66,3.52.98,1.25.35,2.5.69,3.75,1.03.86.23,1.72.46,2.57.69.07.02.13.02.21,0,.84-.2,1.67-.43,2.5-.65,1.17-.31,2.33-.63,3.5-.95,1.2-.33,2.39-.66,3.59-1,1.41-.39,2.81-.78,4.21-1.18.75-.21,1.49-.43,2.23-.66.36-.11.73-.22,1.06-.41.09-.05.13-.11.14-.22.04-.5.09-1,.14-1.5.09-.98.19-1.96.27-2.94.08-.87.15-1.75.23-2.62.07-.78.15-1.57.22-2.35.08-.84.15-1.68.22-2.52.09-1,.17-2.01.26-3.01.07-.78.14-1.55.21-2.33.08-.85.15-1.69.23-2.54.08-.89.15-1.78.23-2.68.05-.59.11-1.18.16-1.77.06-.69.12-1.38.18-2.08.07-.79.15-1.58.22-2.37.07-.79.13-1.58.2-2.37.08-.91.17-1.81.25-2.72.08-.93.16-1.86.24-2.79.07-.8.15-1.61.21-2.41.07-.82.14-1.64.2-2.45.03-.32.06-.63.06-.95,0-.14-.05-.17-.19-.17-6.92,0-13.84,0-20.76,0Z"/>
      <path class="cls-2" d="M20.93,0C27.85,0,34.77,0,41.69,0c.14,0,.19.03.19.17,0,.32-.04.63-.06.95-.07.82-.13,1.64-.2,2.45-.07.8-.14,1.61-.21,2.41-.08.93-.16,1.86-.24,2.79-.08.91-.17,1.81-.25,2.72-.07.79-.13,1.58-.2,2.37-.07.79-.15,1.58-.22,2.37-.06.69-.12,1.38-.18,2.08-.05.59-.11,1.18-.16,1.77-.08.89-.15,1.78-.23,2.68-.07.85-.15,1.69-.23,2.54-.07.78-.14,1.55-.21,2.33-.09,1-.18,2.01-.26,3.01-.07.84-.15,1.68-.22,2.52-.07.78-.15,1.57-.22,2.35-.08.87-.15,1.75-.23,2.62-.09.98-.18,1.96-.27,2.94-.05.5-.1,1-.14,1.5,0,.11-.06.17-.14.22-.33.19-.7.3-1.06.41-.74.23-1.48.45-2.23.66-1.4.4-2.81.79-4.21,1.18-1.2.33-2.39.67-3.59,1-1.16.32-2.33.63-3.5.95-.83.22-1.66.45-2.5.65-.07.02-.14.02-.21,0-.86-.23-1.72-.46-2.57-.69-1.25-.34-2.5-.69-3.75-1.03-1.17-.33-2.34-.66-3.52-.98-1.38-.38-2.76-.77-4.13-1.15-.94-.26-1.88-.53-2.82-.79-.12-.03-.17-.08-.17-.22-.03-.48-.09-.97-.13-1.45-.04-.48-.08-.97-.13-1.45-.07-.78-.14-1.56-.21-2.34-.07-.78-.13-1.55-.2-2.33-.07-.79-.15-1.58-.22-2.37-.07-.78-.13-1.57-.2-2.36-.07-.79-.15-1.58-.22-2.37-.08-.9-.16-1.8-.24-2.7-.07-.78-.14-1.55-.21-2.33-.07-.79-.14-1.59-.21-2.38-.08-.88-.16-1.76-.24-2.65-.07-.78-.13-1.57-.2-2.36-.07-.8-.15-1.6-.22-2.4-.07-.8-.14-1.61-.21-2.41-.08-.89-.16-1.78-.24-2.67-.07-.82-.14-1.64-.21-2.45-.08-.91-.16-1.81-.24-2.72C.14,2.28.08,1.54.02.79,0,.57,0,.34,0,.11,0,.02.03,0,.11,0c.04,0,.07,0,.11,0C7.13,0,14.03,0,20.93,0ZM22.85,19.37s0,0,0,0h-1.99c-1.85,0-3.7,0-5.55,0-.09,0-.12-.02-.11-.12.08-.86.15-1.72.23-2.58.08-.83.16-1.65.24-2.48.09-.94.19-1.87.28-2.81.01-.13.07-.17.19-.18.49-.02.98-.04,1.47-.06.61-.02,1.22-.05,1.83-.05.53,0,1.07-.07,1.61,0,.46.06.93.02,1.4.03.96.02,1.91.06,2.86.11.59.03,1.17.06,1.75.15.11.02.16.06.17.17.15,1.07.25,2.15.36,3.22.06.58.11,1.16.14,1.74,0,.12.06.18.18.21.29.07.59.06.89.06,1.43.01,2.87,0,4.3,0,.1,0,.11-.04.1-.12-.06-.61-.13-1.21-.18-1.82-.1-1.05-.19-2.1-.28-3.15-.07-.84-.15-1.67-.22-2.51-.11-1.23-.21-2.45-.32-3.68,0-.08-.03-.11-.11-.11-.2,0-.4,0-.6,0-.82,0-1.65,0-2.47,0-1.87-.01-3.74,0-5.62-.02-1.55-.02-3.1-.01-4.66-.01-2.14,0-4.28-.01-6.43.03-.38,0-.76.02-1.13.07-.1.01-.14.06-.15.16,0,.16-.02.33-.04.49-.08.79-.17,1.59-.25,2.38-.08.85-.15,1.71-.23,2.56-.07.78-.15,1.55-.22,2.33-.08.88-.15,1.77-.23,2.65-.07.79-.14,1.58-.21,2.37-.05.52-.09,1.04-.14,1.56-.04.47-.08.94-.12,1.41-.04.48-.08.96-.12,1.44-.05.59-.11,1.17-.13,1.76,0,.11.03.14.14.14,3.95,0,7.89-.02,11.84.01,1.39.01,2.77,0,4.16,0,.58,0,1.15,0,1.73,0,.07,0,.13,0,.11.1-.08.47-.13.95-.17,1.43-.09.99-.18,1.98-.27,2.97-.06.69-.12,1.37-.23,2.06-.01.07-.04.12-.11.14-.15.04-.29.1-.44.14-1.51.44-3.03.84-4.55,1.22-.46.11-.89.13-1.36.01-1.64-.43-3.28-.89-4.92-1.33-.17-.04-.21-.12-.22-.27-.04-.6-.09-1.2-.15-1.8-.06-.65-.13-1.3-.18-1.95-.01-.16-.06-.19-.2-.19-1.66,0-3.32,0-4.97,0-.21,0-.18-.03-.18.19,0,.6.04,1.19.1,1.79.06.6.1,1.2.15,1.8.07.69.14,1.37.21,2.06.08.78.17,1.56.31,2.33.02.11.07.17.18.2.47.13.94.28,1.4.41,1.35.39,2.7.77,4.05,1.15,1.49.42,2.99.82,4.48,1.23.3.08.6.16.93.07,1.3-.35,2.61-.7,3.91-1.05,1.3-.36,2.6-.72,3.89-1.1.86-.25,1.72-.5,2.56-.79.11-.04.16-.09.18-.21.11-.86.19-1.72.27-2.59.08-.86.17-1.73.25-2.59.06-.7.12-1.4.18-2.1.1-1.08.2-2.16.3-3.24.07-.79.13-1.59.21-2.38.09-.92.18-1.85.28-2.77.02-.15-.04-.2-.16-.21-.21-.02-.42-.05-.63-.06-.79-.02-1.58-.04-2.36-.05-.5,0-1,0-1.5,0-1.89,0-3.79,0-5.68,0Z"/>
      <path class="cls-1" d="M22.85,19.37c1.89,0,3.79,0,5.68,0,.5,0,1,0,1.5,0,.79.01,1.58.03,2.36.05.21,0,.42.03.63.06.12.01.18.06.16.21-.1.92-.19,1.84-.28,2.77-.08.79-.14,1.59-.21,2.38-.1,1.08-.2,2.16-.3,3.24-.06.7-.12,1.4-.18,2.1-.08.86-.17,1.73-.25,2.59-.08.86-.16,1.73-.27,2.59-.02.13-.07.17-.18.21-.85.29-1.71.54-2.56.79-1.29.38-2.59.74-3.89,1.1-1.3.36-2.6.7-3.91,1.05-.33.09-.62.02-.93-.07-1.49-.41-2.99-.82-4.48-1.23-1.35-.38-2.7-.77-4.05-1.15-.47-.13-.94-.28-1.4-.41-.11-.03-.16-.09-.18-.2-.14-.77-.23-1.55-.31-2.33-.07-.69-.15-1.37-.21-2.06-.06-.6-.1-1.2-.15-1.8-.05-.6-.09-1.19-.1-1.79,0-.22-.03-.19.18-.19,1.66,0,3.32,0,4.97,0,.15,0,.19.03.2.19.05.65.12,1.3.18,1.95.05.6.1,1.2.15,1.8.01.15.06.22.22.27,1.64.44,3.28.89,4.92,1.33.47.12.9.1,1.36-.01,1.53-.38,3.04-.78,4.55-1.22.15-.04.29-.1.44-.14.07-.02.1-.07.11-.14.11-.68.17-1.37.23-2.06.09-.99.18-1.98.27-2.97.04-.48.09-.96.17-1.43.02-.1-.04-.1-.11-.1-.58,0-1.15,0-1.73,0-1.39,0-2.77.01-4.16,0-3.95-.04-7.89,0-11.84-.01-.11,0-.14-.03-.14-.14.02-.59.08-1.17.13-1.76.04-.48.08-.96.12-1.44.04-.47.08-.94.12-1.41.05-.52.09-1.04.14-1.56.07-.79.14-1.58.21-2.37.08-.88.15-1.77.23-2.65.07-.78.15-1.55.22-2.33.08-.85.15-1.71.23-2.56.08-.79.17-1.59.25-2.38.02-.16.03-.33.04-.49,0-.11.05-.15.15-.16.38-.05.75-.06,1.13-.07,2.14-.04,4.28-.03,6.43-.03,1.55,0,3.1,0,4.66.01,1.87.02,3.74,0,5.62.02.82,0,1.65,0,2.47,0,.2,0,.4,0,.6,0,.08,0,.11.03.11.11.1,1.23.21,2.45.32,3.68.07.84.15,1.67.22,2.51.09,1.05.19,2.1.28,3.15.06.61.12,1.21.18,1.82,0,.08,0,.12-.1.12-1.43,0-2.87,0-4.3,0-.3,0-.6,0-.89-.06-.12-.03-.18-.08-.18-.21-.03-.58-.08-1.16-.14-1.74-.11-1.08-.2-2.15-.36-3.22-.02-.11-.06-.16-.17-.17-.58-.09-1.17-.11-1.75-.15-.95-.05-1.91-.09-2.86-.11-.47-.01-.94.03-1.4-.03-.54-.07-1.07,0-1.61,0-.61,0-1.22.03-1.83.05-.49.02-.98.04-1.47.06-.12,0-.18.04-.19.18-.09.94-.19,1.87-.28,2.81-.08.83-.16,1.65-.24,2.48-.08.86-.15,1.72-.23,2.58,0,.1.03.12.11.12,1.85,0,3.7,0,5.55,0h1.99s0,0,0,0Z"/>
    </g>
  </g>
</svg>