<?xml version="1.0" encoding="UTF-8"?>
<svg id="Camada_2" data-name="Camada 2" xmlns="http://www.w3.org/2000/svg" viewBox="0 0 60 60.01">
  <defs>
    <style>
      .cls-1 {
        stroke-width: 0px;
      }
    </style>
  </defs>
  <g id="Camada_1-2" data-name="Camada 1">
    <path class="cls-1" d="M28.04.02c-.13.01-.54.05-.91.08C18.6.87,10.62,5.46,5.57,12.53,2.75,16.46.95,20.92.27,25.64c-.24,1.65-.27,2.13-.27,4.37s.03,2.72.27,4.37c1.63,11.27,9.65,20.73,20.52,24.24,1.95.63,4,1.06,6.33,1.31.91.1,4.84.1,5.75,0,4.03-.45,7.44-1.44,10.81-3.16.52-.26.62-.33.55-.39-.05-.04-2.25-2.99-4.89-6.55l-4.8-6.48-6.01-8.9c-3.31-4.89-6.03-8.89-6.05-8.89-.02,0-.05,3.95-.06,8.77-.02,8.45-.02,8.79-.13,8.99-.15.29-.27.4-.52.53-.19.09-.35.11-1.24.11h-1.01l-.27-.17c-.18-.11-.3-.26-.39-.43l-.12-.26v-11.76s.03-11.77.03-11.77l.18-.23c.09-.12.29-.28.43-.36.24-.12.33-.13,1.35-.13,1.2,0,1.4.05,1.71.39.09.09,3.34,5,7.24,10.9,3.89,5.91,9.22,13.97,11.84,17.93l4.75,7.2.24-.16c2.13-1.38,4.38-3.35,6.16-5.41,3.79-4.36,6.24-9.67,7.06-15.34.24-1.65.27-2.13.27-4.37s-.03-2.72-.27-4.37c-1.63-11.27-9.65-20.73-20.52-24.24-1.92-.62-3.96-1.05-6.25-1.31-.56-.06-4.44-.12-4.93-.08h0ZM40.32,18.16c.28.14.51.41.59.69.05.15.06,3.41.05,10.76l-.02,10.55-1.86-2.85-1.87-2.85v-7.67c0-4.96.02-7.74.06-7.88.09-.33.3-.59.58-.74.24-.12.33-.13,1.25-.13.87,0,1.02.01,1.21.12h0Z"/>
  </g>
</svg>