<?xml version="1.0" encoding="UTF-8"?>
<svg id="Camada_2" data-name="Camada 2" xmlns="http://www.w3.org/2000/svg" viewBox="0 0 60 31.11">
  <defs>
    <style>
      .cls-1 {
        fill: #8993be;
      }

      .cls-1, .cls-2 {
        stroke-width: 0px;
      }

      .cls-2 {
        fill: #20222f;
      }
    </style>
  </defs>
  <g id="Camada_1-2" data-name="Camada 1">
    <g>
      <path class="cls-1" d="M25,0h9.8c.58.4,1.26.3,1.91.38,5.37.67,10.54,1.97,15.31,4.6,2.11,1.17,4.04,2.57,5.59,4.45,1.4,1.71,2.36,3.62,2.4,5.88.06,3.28-1.58,5.76-3.89,7.87-2.59,2.38-5.67,3.95-8.97,5.09-9.23,3.19-18.65,3.58-28.18,1.69-4.71-.93-9.2-2.49-13.16-5.27-2.53-1.77-4.6-3.93-5.51-6.99-.04-.14-.18-.26-.28-.38,0-1.2,0-2.39,0-3.59.28-.13.3-.42.37-.67.49-1.58,1.36-2.94,2.47-4.15,1.77-1.94,3.92-3.37,6.25-4.53C13.57,2.16,18.36.99,23.31.38c.57-.07,1.2.05,1.69-.38ZM15.7,20.46c.4,0,.8,0,1.2,0,4.62.01,8.12-4.18,7.26-8.72-.41-2.19-2.16-3.5-4.87-3.56-2.1-.05-4.19.04-6.29-.03-.96-.03-1.37.21-1.56,1.22-.82,4.5-1.75,8.98-2.64,13.47-.37,1.89-.37,1.89,1.6,1.89s1.92,0,2.29-1.84q.48-2.43,3.02-2.43ZM43.18,20.46c.37,0,.73,0,1.1,0,3.84.02,6.75-2.42,7.39-6.19.65-3.79-1.23-6.05-5.09-6.1-2.1-.03-4.19.04-6.29-.03-.87-.03-1.13.28-1.28,1.07-.85,4.49-1.76,8.98-2.65,13.47q-.4,2.05,1.7,2.05,1.81,0,2.14-1.79.46-2.49,2.97-2.48ZM34.22,20.46c.23,0,.47-.03.7,0,1.06.19,1.42-.27,1.55-1.31.29-2.24.75-4.45,1.12-6.68.4-2.45-.47-3.66-2.94-4.16-1.22-.25-2.46-.18-3.69-.12-.99.05-1.12-.33-.91-1.16.21-.8.31-1.63.49-2.44.11-.51-.01-.75-.57-.73-.8.02-1.6.04-2.4,0-.63-.04-.87.21-.99.81-.96,4.95-1.95,9.9-2.95,14.84-.14.67-.04,1,.74.95.73-.05,1.47-.05,2.2,0,.64.04.87-.23.98-.82.35-1.89.74-3.78,1.12-5.67q.58-2.83,3.49-2.74c1.34.04,1.61.35,1.37,1.64-.34,1.83-.69,3.65-1.04,5.48q-.41,2.09,1.72,2.09Z"/>
      <path class="cls-2" d="M15.7,20.46q-2.53,0-3.02,2.43-.37,1.84-2.29,1.84c-1.96,0-1.97,0-1.6-1.89.88-4.49,1.81-8.97,2.64-13.47.19-1.01.6-1.26,1.56-1.22,2.09.07,4.19-.01,6.29.03,2.71.06,4.45,1.36,4.87,3.56.86,4.54-2.63,8.74-7.26,8.72-.4,0-.8,0-1.2,0ZM16.74,11.24c-.37,0-.73.02-1.1,0-.43-.02-.67.12-.74.58-.26,1.67-.55,3.33-.84,4.99-.05.3-.02.54.36.54,1.19,0,2.4.15,3.54-.33,1.41-.58,2.43-2.61,2.14-4.23-.2-1.1-1.09-1.55-3.06-1.55-.1,0-.2,0-.3,0Z"/>
      <path class="cls-2" d="M43.18,20.46q-2.51,0-2.97,2.48-.33,1.79-2.14,1.79-2.1,0-1.7-2.05c.89-4.49,1.79-8.97,2.65-13.47.15-.79.41-1.1,1.28-1.07,2.09.08,4.19,0,6.29.03,3.86.05,5.73,2.3,5.09,6.1-.64,3.77-3.56,6.21-7.39,6.19-.37,0-.73,0-1.1,0ZM44.26,11.24h0c-.4,0-.8.01-1.2,0-.36,0-.55.16-.61.51-.27,1.67-.55,3.34-.83,5.01-.06.33-.02.6.42.6,1.1-.01,2.2.12,3.27-.25,1.56-.54,2.61-2.49,2.32-4.32-.17-1.1-1.06-1.54-3.07-1.55-.1,0-.2,0-.3,0Z"/>
      <path class="cls-2" d="M34.22,20.46q-2.13,0-1.72-2.09c.36-1.82.71-3.65,1.04-5.48.24-1.3-.03-1.6-1.37-1.64q-2.9-.09-3.49,2.74c-.39,1.89-.77,3.77-1.12,5.67-.11.59-.34.86-.98.82-.73-.05-1.47-.05-2.2,0-.78.05-.88-.28-.74-.95,1-4.94,1.99-9.89,2.95-14.84.12-.6.36-.85.99-.81.8.05,1.6.03,2.4,0,.56-.02.69.22.57.73-.18.81-.29,1.64-.49,2.44-.21.83-.09,1.2.91,1.16,1.22-.06,2.46-.13,3.69.12,2.47.5,3.34,1.71,2.94,4.16-.37,2.23-.83,4.44-1.12,6.68-.13,1.04-.49,1.5-1.55,1.31-.23-.04-.47,0-.7,0Z"/>
      <path class="cls-1" d="M16.74,11.24c.1,0,.2,0,.3,0,1.97,0,2.86.46,3.06,1.55.3,1.62-.73,3.65-2.14,4.23-1.15.48-2.35.32-3.54.33-.38,0-.41-.24-.36-.54.28-1.66.57-3.33.84-4.99.07-.46.31-.61.74-.58.36.02.73,0,1.1,0Z"/>
      <path class="cls-1" d="M44.26,11.24c.1,0,.2,0,.3,0,2.01,0,2.89.45,3.07,1.55.29,1.82-.76,3.78-2.32,4.32-1.07.37-2.17.24-3.27.25-.44,0-.48-.26-.42-.6.28-1.67.56-3.34.83-5.01.06-.35.25-.52.61-.51.4,0,.8,0,1.2,0h0Z"/>
    </g>
  </g>
</svg>