<?xml version="1.0" encoding="UTF-8"?>
<svg id="Camada_2" data-name="Camada 2" xmlns="http://www.w3.org/2000/svg" viewBox="0 0 58.6 52.14">
  <defs>
    <style>
      .cls-1 {
        fill: #62dafb;
        stroke-width: 0px;
      }
    </style>
  </defs>
  <g id="Camada_1-2" data-name="Camada 1">
    <g>
      <path class="cls-1" d="M16.57,0h2.19c.04.05.11.05.17.06.76.14,1.5.35,2.22.64,1.59.63,3.03,1.52,4.4,2.52,1.27.93,2.46,1.96,3.59,3.05.16.16.16.15.33,0,.55-.52,1.1-1.03,1.68-1.52,1.41-1.21,2.89-2.31,4.52-3.2,1.24-.68,2.54-1.21,3.94-1.47.09-.02.19,0,.27-.07h2.19c.1.08.23.07.34.1.79.18,1.51.51,2.15,1.01.92.71,1.55,1.63,1.98,2.7.58,1.4.78,2.88.83,4.38.03.85,0,1.7-.08,2.55-.09,1-.23,1.98-.4,2.96-.14.78-.31,1.55-.5,2.32-.06.23-.05.23.18.3.07.02.15.04.22.07,1.42.42,2.81.91,4.16,1.5,1.56.68,3.04,1.48,4.38,2.54,1.02.8,1.91,1.72,2.53,2.87.84,1.56.98,3.18.33,4.85-.49,1.25-1.32,2.25-2.32,3.13-1.08.96-2.3,1.71-3.58,2.36-1.82.92-3.73,1.62-5.68,2.18-.3.09-.3.08-.22.39,0,.02,0,.03.01.05.48,1.96.82,3.94.93,5.96.08,1.39.03,2.78-.22,4.15-.2,1.08-.55,2.12-1.13,3.06-.64,1.05-1.52,1.85-2.66,2.33-.43.18-.87.29-1.32.39-.61,0-1.22,0-1.82,0-.15,0-.29,0-.44-.03-1.1-.19-2.15-.55-3.16-1.03-1.59-.75-3.03-1.73-4.4-2.81-.93-.74-1.83-1.52-2.68-2.35-.19-.19-.19-.18-.39,0-.41.38-.82.77-1.25,1.15-1.37,1.21-2.81,2.32-4.39,3.25-1.2.7-2.44,1.29-3.79,1.62-.54.14-1.08.23-1.65.21-.47-.02-.94,0-1.41,0-.1-.02-.2-.05-.3-.07-.65-.13-1.26-.37-1.83-.73-1.13-.71-1.88-1.73-2.4-2.94-.52-1.23-.75-2.53-.83-3.85-.09-1.54,0-3.07.21-4.6.18-1.26.43-2.51.73-3.75.01-.06.03-.12.04-.18.02-.08-.01-.13-.1-.16-.06-.02-.12-.03-.17-.05-1.44-.42-2.86-.91-4.24-1.51-1.59-.69-3.11-1.51-4.48-2.58-.98-.78-1.85-1.66-2.46-2.76C-.02,27.51-.23,26,.26,24.4c.32-1.02.89-1.9,1.6-2.68.85-.93,1.84-1.69,2.91-2.35,1.71-1.05,3.54-1.83,5.44-2.48.61-.21,1.22-.4,1.84-.58.21-.06.22-.08.17-.3-.05-.24-.11-.47-.17-.71-.4-1.71-.69-3.44-.79-5.19-.08-1.41-.07-2.83.2-4.23.2-1.06.52-2.09,1.07-3.03.87-1.48,2.12-2.43,3.81-2.79.07-.02.16,0,.22-.07ZM29.22,35.49c1.46.02,2.85-.05,4.25-.11.3-.01.61-.04.91-.06.18,0,.3-.09.4-.24,1.88-2.8,3.57-5.72,5.05-8.74.09-.19.09-.34,0-.53-.98-2.01-2.05-3.96-3.21-5.87-.6-.98-1.21-1.94-1.86-2.89-.07-.11-.14-.2-.3-.21-.84-.04-1.68-.12-2.52-.13-1.17-.02-2.34-.06-3.52-.04-1.42.03-2.83.07-4.24.17-.14.01-.24.05-.32.18-.23.37-.48.72-.72,1.09-1.62,2.49-3.08,5.08-4.39,7.75-.09.18-.08.31,0,.48.63,1.29,1.3,2.55,2,3.8.94,1.67,1.95,3.3,3.02,4.9.13.2.29.3.53.31.61.03,1.21.08,1.82.1,1.05.03,2.1.09,3.09.06ZM17.65,2.5c-.06,0-.12,0-.18,0-.95.03-1.75.38-2.37,1.13-.46.55-.73,1.2-.93,1.88-.32,1.12-.41,2.27-.4,3.43,0,.68.05,1.35.12,2.03.16,1.49.44,2.95.79,4.4.06.26.06.25.34.2.47-.1.93-.2,1.4-.29,1.12-.22,2.26-.4,3.39-.55.82-.11,1.64-.21,2.46-.28.2-.02.33-.09.45-.25.73-1.03,1.5-2.04,2.29-3.03.75-.93,1.53-1.84,2.34-2.73q.16-.18-.01-.35s-.04-.04-.06-.05c-1.18-1.13-2.42-2.19-3.77-3.12-1.12-.78-2.28-1.46-3.56-1.93-.75-.27-1.51-.46-2.31-.47ZM44.83,8.56c0-.5-.05-1.26-.17-2.01-.13-.8-.34-1.58-.73-2.3-.63-1.15-1.6-1.75-2.92-1.75-.5,0-.99.07-1.47.2-1.05.27-2.03.72-2.96,1.26-1.35.77-2.58,1.7-3.76,2.71-.54.46-1.05.93-1.56,1.42-.18.17-.18.17-.02.35.13.15.27.29.41.44,1.52,1.71,2.94,3.5,4.26,5.36.09.13.2.19.36.21.96.08,1.92.2,2.87.33,1.5.21,2.98.47,4.46.8.24.05.25.05.32-.2.18-.73.34-1.45.47-2.19.26-1.44.43-2.88.44-4.62ZM44.82,43.31c.01-.85-.06-1.74-.17-2.63-.16-1.29-.41-2.57-.72-3.83-.09-.37-.05-.33-.41-.25-1.29.28-2.59.52-3.89.71-1.12.17-2.24.3-3.36.41-.19.02-.29.1-.39.24-.94,1.32-1.93,2.61-2.97,3.86-.55.65-1.11,1.29-1.68,1.92q-.14.16.01.31s.05.05.07.07c1.13,1.09,2.32,2.1,3.59,3,1.15.81,2.35,1.54,3.68,2.03.92.34,1.86.57,2.85.47.77-.08,1.43-.4,1.96-.98.54-.6.85-1.33,1.06-2.1.28-1.05.38-2.12.37-3.24ZM2.55,26.11c-.02.12.02.3.05.48.03.16.07.32.13.48.24.71.69,1.3,1.21,1.83.94.97,2.07,1.69,3.26,2.32,1.37.73,2.81,1.29,4.28,1.77.42.14.85.26,1.27.39.23.07.23.06.31-.17,0-.02.02-.05.02-.07.74-2.32,1.63-4.58,2.64-6.79.09-.19.09-.35,0-.54-.89-1.93-1.68-3.91-2.36-5.93-.11-.34-.22-.68-.33-1.02-.04-.12-.09-.16-.21-.11-.05.02-.1.03-.15.04-1.37.4-2.71.87-4.02,1.44-1.29.57-2.53,1.23-3.66,2.08-.72.55-1.38,1.17-1.87,1.94-.34.55-.56,1.13-.58,1.85ZM13.76,43.3c.01.24.03.49.03.73.01.67.09,1.33.22,1.99.16.79.41,1.54.86,2.22.66.99,1.61,1.43,2.77,1.42.62,0,1.22-.13,1.82-.31,1.15-.36,2.21-.91,3.23-1.55,1.68-1.06,3.19-2.34,4.63-3.71.03-.02.05-.05.07-.07.08-.07.09-.14.01-.22-.03-.03-.06-.06-.09-.1-1.07-1.16-2.08-2.38-3.05-3.63-.54-.7-1.07-1.41-1.58-2.13-.09-.12-.17-.19-.33-.2-.42-.03-.83-.09-1.24-.13-.98-.1-1.96-.25-2.94-.4-1.08-.17-2.15-.38-3.22-.61-.21-.04-.21-.04-.26.16-.08.35-.17.71-.25,1.07-.39,1.81-.66,3.64-.69,5.49ZM56.04,26.03c.02-.42-.1-.87-.3-1.29-.27-.57-.65-1.07-1.09-1.52-.9-.92-1.97-1.62-3.1-2.22-1.82-.97-3.74-1.67-5.71-2.24-.21-.06-.21-.06-.28.16-.75,2.37-1.66,4.68-2.69,6.94-.07.15-.07.27,0,.42,1.03,2.26,1.95,4.57,2.69,6.94.01.03.02.07.03.1.03.08.08.11.16.09.08-.02.15-.04.23-.06,1.31-.39,2.6-.83,3.85-1.37,1.35-.59,2.65-1.27,3.82-2.17.7-.54,1.33-1.14,1.81-1.89.36-.56.59-1.16.58-1.88ZM32.68,14.17c-.12-.22-.26-.37-.38-.53-.9-1.17-1.85-2.3-2.84-3.39-.16-.18-.17-.17-.32,0-1.08,1.19-2.1,2.43-3.08,3.7-.05.06-.11.11-.11.22,2.23-.09,4.46-.09,6.73,0ZM37.92,17.2c1.22,1.92,2.33,3.85,3.37,5.83.1-.07.11-.16.15-.24.6-1.43,1.13-2.87,1.61-4.34.12-.37.12-.37-.26-.45-1.26-.27-2.52-.49-3.79-.67-.33-.05-.66-.12-1.07-.12ZM41.28,29.12c-1.03,1.99-2.15,3.91-3.34,5.8.06.06.11.05.15.04,1.27-.17,2.54-.37,3.8-.62.36-.07.71-.15,1.07-.23.19-.04.19-.05.13-.24,0,0,0-.02,0-.02-.49-1.54-1.05-3.05-1.67-4.54-.03-.06-.04-.13-.13-.19ZM17.32,29.12c-.11.09-.13.18-.16.26-.43,1.04-.84,2.09-1.21,3.16-.15.44-.3.89-.44,1.33-.06.18-.05.19.12.24.03,0,.07.02.1.02,1.48.32,2.96.57,4.46.77.15.02.3.07.49.04-1.22-1.9-2.32-3.83-3.37-5.82ZM17.29,23.01s3.33-5.79,3.34-5.8c-.1-.03-.19,0-.28,0-.77.12-1.54.23-2.31.35-.8.13-1.59.29-2.37.46-.2.04-.2.05-.15.24,0,.03.01.05.02.07.49,1.52,1.04,3.02,1.66,4.49.03.06.03.14.1.17ZM25.96,37.97c-.03.08.02.11.05.15.99,1.3,2.03,2.56,3.13,3.76.17.18.18.18.34,0,1.05-1.16,2.06-2.37,3.01-3.62.06-.08.12-.16.21-.29-2.28.1-4.51.1-6.74,0Z"/>
      <path class="cls-1" d="M34.51,26.09c.03,2.85-2.37,5.21-5.23,5.2-2.72,0-5.21-2.22-5.2-5.24,0-2.89,2.36-5.22,5.27-5.2,3.01.03,5.22,2.52,5.17,5.24Z"/>
    </g>
  </g>
</svg>