<?xml version="1.0" encoding="UTF-8"?>
<svg id="Camada_2" data-name="Camada 2" xmlns="http://www.w3.org/2000/svg" viewBox="0 0 60 36.13">
  <defs>
    <style>
      .cls-1 {
        fill: #39bdf7;
        stroke-width: 0px;
      }
    </style>
  </defs>
  <g id="Camada_1-2" data-name="Camada 1">
    <g>
      <path class="cls-1" d="M60,6.57c-.46.51-.49,1.19-.71,1.79-2.34,6.29-6.93,9.49-13.64,9.69-5.33.16-9.81-1.59-13.51-5.41-.87-.9-1.78-1.76-2.67-2.65-3.93-3.93-9.69-3.64-13.51.69-.27.3-.53.6-.87.86.34-1.81,1.04-3.47,1.99-5.04C19.49,2.53,23.13.59,27.67.13c4.84-.5,9.29.41,13.12,3.57,1.5,1.24,2.84,2.65,4.21,4.02,1.26,1.25,2.63,2.33,4.39,2.79,4.03,1.04,7.15-.5,9.78-3.45.24-.27.36-.69.83-.67v.19Z"/>
      <path class="cls-1" d="M0,29.58c1.67-6.97,6.28-10.77,12.54-11.39,3.76-.37,7.37.05,10.73,1.89,1.7.92,3.11,2.19,4.48,3.54.98.97,1.95,1.95,2.97,2.87,3.67,3.27,8.51,3.22,12.14-.1.62-.56,1.27-1.09,1.87-1.59-.62,2.39-1.67,4.69-3.36,6.67-2.45,2.88-5.69,4.21-9.37,4.57-5.99.58-11.12-1.17-15.24-5.65-.99-1.08-2.04-2.12-3.18-3.05-3.42-2.77-8.01-2.71-11.36.19-.75.65-1.45,1.36-2.21,2.07Z"/>
    </g>
  </g>
</svg>